<?xml version="1.0" encoding="UTF-8"?>
<svg version="1.1" xmlns="http://www.w3.org/2000/svg" width="148" height="106">
<path d="M0 0 C4.69986395 2.11775307 8.41187272 4.80122577 12.25 8.1875 C13.38840187 9.17163934 14.52773504 10.15470238 15.66796875 11.13671875 C16.22790527 11.62060059 16.7878418 12.10448242 17.36474609 12.60302734 C24.03608137 18.3532236 24.03608137 18.3532236 31.2421875 23.3828125 C33 25 33 25 33.56640625 27.5234375 C33.56511719 28.46445312 33.56382812 29.40546875 33.5625 30.375 C33.58441406 31.31085937 33.60632813 32.24671875 33.62890625 33.2109375 C32.75696996 37.07778539 30.97256149 38.41306811 28 41 C27.47398193 41.46293457 26.94796387 41.92586914 26.40600586 42.40283203 C24.68057056 43.91079661 22.93687021 45.39489141 21.1875 46.875 C19.94371169 47.93324275 18.70022043 48.99183473 17.45703125 50.05078125 C16.56491943 50.8099585 16.56491943 50.8099585 15.65478516 51.58447266 C12.95841661 53.89098561 10.30006854 56.23998431 7.6484375 58.59765625 C2.4735376 63 2.4735376 63 0 63 C-1.34609895 58.79344079 -1.81344403 54.19201759 -0.2578125 50 C1.28279914 47.5503318 2.98927147 46.21801773 5.3125 44.5 C6.11945313 43.89414062 6.92640625 43.28828125 7.7578125 42.6640625 C8.49773437 42.11492188 9.23765625 41.56578125 10 41 C11.67423683 39.67618483 13.34211215 38.34423339 15 37 C15.52722656 36.5771875 16.05445312 36.154375 16.59765625 35.71875 C19.75488964 33.24964483 19.75488964 33.24964483 22 30 C21.41806885 29.72978027 20.8361377 29.45956055 20.23657227 29.18115234 C16.42883153 27.17025291 13.26122439 24.34141921 9.9375 21.625 C9.21755859 21.0475 8.49761719 20.47 7.75585938 19.875 C7.06169922 19.31039063 6.36753906 18.74578125 5.65234375 18.1640625 C5.02320068 17.65311035 4.39405762 17.1421582 3.74584961 16.61572266 C1.05489767 14.1253409 -0.85143606 12.15137056 -1.328125 8.45703125 C-1.30234375 7.58433594 -1.2765625 6.71164063 -1.25 5.8125 C-1.23453125 4.93207031 -1.2190625 4.05164063 -1.203125 3.14453125 C-1 1 -1 1 0 0 Z " fill="#0EA499" transform="translate(110,10)"/>
<path d="M0 0 C0.33 0 0.66 0 1 0 C1.2246285 1.39330381 1.4289245 2.78989209 1.625 4.1875 C1.74101563 4.96480469 1.85703125 5.74210938 1.9765625 6.54296875 C2.00641704 9.67271969 1.55323673 11.25973682 0 14 C-2.07647608 16.04345135 -4.35157987 17.76446725 -6.6875 19.5 C-7.28755859 19.96019531 -7.88761719 20.42039062 -8.50585938 20.89453125 C-12.60557667 24.02106109 -16.79353378 27.0192948 -21 30 C-19.5780018 33.5549955 -18.36269949 34.36668882 -15 36 C-14.26136719 36.75152344 -13.52273437 37.50304688 -12.76171875 38.27734375 C-9.90187062 41.09674141 -6.87396444 43.27284415 -3.625 45.625 C-0.40131253 48.10821391 1.80534857 49.91433851 2.5546875 54.09375 C2.27658312 56.86053206 1.82675957 59.3483199 1 62 C-1.74657411 60.68747786 -4.25723654 59.24706499 -6.75 57.5 C-7.36359375 57.0771875 -7.9771875 56.654375 -8.609375 56.21875 C-9.06828125 55.8165625 -9.5271875 55.414375 -10 55 C-10 54.34 -10 53.68 -10 53 C-10.556875 52.731875 -11.11375 52.46375 -11.6875 52.1875 C-19.28571429 48.28571429 -19.28571429 48.28571429 -22 45 C-22 44.34 -22 43.68 -22 43 C-22.53625 42.773125 -23.0725 42.54625 -23.625 42.3125 C-30.10115492 38.73357228 -30.10115492 38.73357228 -32 36 C-32.77176323 32.32463578 -32.37909673 29.4793242 -31 26 C-28.35094877 22.82420692 -25.45655371 20.27054354 -22 18 C-21.34 18 -20.68 18 -20 18 C-20 17.34 -20 16.68 -20 16 C-18.63671875 14.80859375 -18.63671875 14.80859375 -16.6875 13.4375 C-7.98452866 7.14839885 -7.98452866 7.14839885 0 0 Z " fill="#06262B" transform="translate(40,10)"/>
<path d="M0 0 C2.01822917 0.06510417 4.03645833 0.13020833 6.0546875 0.1953125 C6.34731819 5.97861895 5.32105705 10.72971673 3.6796875 16.2578125 C3.34710938 17.42280273 3.34710938 17.42280273 3.0078125 18.61132812 C2.37434572 20.81169362 1.71981482 23.00433538 1.0546875 25.1953125 C0.71179688 26.32839844 0.36890625 27.46148437 0.015625 28.62890625 C-0.9453125 31.1953125 -0.9453125 31.1953125 -2.9453125 33.1953125 C-3.21198484 35.09535289 -3.46971253 36.99745569 -3.6640625 38.90625 C-4.13400401 42.7310517 -5.07557365 46.44545483 -5.9453125 50.1953125 C-6.28517917 51.86065917 -6.62233736 53.52660763 -6.9453125 55.1953125 C-7.6053125 55.1953125 -8.2653125 55.1953125 -8.9453125 55.1953125 C-8.9246875 55.9996875 -8.9040625 56.8040625 -8.8828125 57.6328125 C-8.9453125 60.1953125 -8.9453125 60.1953125 -9.9453125 61.1953125 C-11.46459288 61.26711214 -12.98698732 61.27923257 -14.5078125 61.2578125 C-15.33410156 61.24878906 -16.16039063 61.23976562 -17.01171875 61.23046875 C-17.64980469 61.21886719 -18.28789063 61.20726562 -18.9453125 61.1953125 C-18.9453125 58.30869234 -18.40529243 56.10978227 -17.58691406 53.36669922 C-16.8344465 50.82010618 -16.13467701 48.26149695 -15.4375 45.69921875 C-15.17324219 44.72919922 -14.90898438 43.75917969 -14.63671875 42.75976562 C-14.23259766 41.27379883 -14.23259766 41.27379883 -13.8203125 39.7578125 C-13.40458984 38.23124023 -13.40458984 38.23124023 -12.98046875 36.67382812 C-12.30169626 34.18109467 -11.6233211 31.68825382 -10.9453125 29.1953125 C-10.2853125 29.1953125 -9.6253125 29.1953125 -8.9453125 29.1953125 C-9.16832031 28.25300781 -9.39132813 27.31070313 -9.62109375 26.33984375 C-10.35333128 21.19344513 -8.69844367 16.7422772 -7.1328125 11.8828125 C-6.85888672 10.97724609 -6.58496094 10.07167969 -6.30273438 9.13867188 C-3.57249204 0.35868394 -3.57249204 0.35868394 0 0 Z " fill="#209075" transform="translate(81.9453125,10.8046875)"/>
<path d="M0 0 C0.66 0.33 1.32 0.66 2 1 C1.45385842 8.0998406 -0.63669813 14.3114098 -3 21 C-4.56890333 25.54266586 -5.89107994 30.12792899 -7.12890625 34.76953125 C-7.52790694 36.24937265 -7.92699806 37.72918967 -8.32617188 39.20898438 C-8.94846467 41.52399261 -9.56966558 43.83928369 -10.18920898 46.1550293 C-10.79118515 48.40232813 -11.39727489 50.64848532 -12.00390625 52.89453125 C-12.18933487 53.59238235 -12.37476349 54.29023346 -12.56581116 55.00923157 C-13.8866787 59.8866787 -13.8866787 59.8866787 -15 61 C-17.67058851 61.14115161 -20.32432238 61.04247107 -23 61 C-24.62444138 57.75111723 -22.95966758 54.65191786 -21.98046875 51.32421875 C-21.7618367 50.56204544 -21.54320465 49.79987213 -21.31794739 49.01460266 C-20.85297455 47.39880941 -20.38450452 45.78401912 -19.9128418 44.17016602 C-19.19406545 41.70997191 -18.48573184 39.24696599 -17.77929688 36.78320312 C-17.3261352 35.21336419 -16.87237811 33.64369698 -16.41796875 32.07421875 C-16.20641647 31.34071701 -15.9948642 30.60721527 -15.77690125 29.85148621 C-14.69082544 26.14425814 -13.43449165 22.58313488 -12 19 C-12 18.34 -12 17.68 -12 17 C-11.73139939 15.22552153 -11.43593602 13.45505168 -11.125 11.6875 C-10.96257812 10.74261719 -10.80015625 9.79773437 -10.6328125 8.82421875 C-10.00646915 6.02887156 -9.23489718 3.5841367 -8 1 C-5.26094655 -0.36952673 -3.02912668 -0.12621361 0 0 Z " fill="#072428" transform="translate(102,11)"/>
<path d="M0 0 C6.75 -0.125 6.75 -0.125 9 1 C8.50523351 6.64033795 7.58054378 10.94213419 5 16 C4.34 16.33 3.68 16.66 3 17 C3.17885742 17.58177002 3.35771484 18.16354004 3.54199219 18.76293945 C4.27966985 22.3659994 3.13397376 25.68957633 2.25 29.1875 C2.06244141 29.95416992 1.87488281 30.72083984 1.68164062 31.51074219 C0.56671184 35.98758079 -0.65401573 40.38868126 -2.2109375 44.734375 C-3.66221346 48.90140499 -4.87046673 53.14760953 -6.1328125 57.375 C-7 60 -7 60 -8 61 C-10.67058851 61.14115161 -13.32432238 61.04247107 -16 61 C-15.43210607 55.60594228 -14.47827138 50.56561739 -12.93359375 45.359375 C-12.73524429 44.66990784 -12.53689484 43.98044067 -12.33253479 43.27008057 C-11.7065145 41.09503426 -11.07290641 38.92232133 -10.4375 36.75 C-9.79879648 34.56332585 -9.1619833 32.37620519 -8.53175354 30.18707275 C-8.14169902 28.83222509 -7.74685211 27.4787452 -7.34654236 26.12689209 C-6.41518004 22.89247322 -6 20.41141415 -6 17 C-5.34 17 -4.68 17 -4 17 C-3.87882812 16.10796875 -3.75765625 15.2159375 -3.6328125 14.296875 C-3.46523438 13.12640625 -3.29765625 11.9559375 -3.125 10.75 C-2.96257813 9.58984375 -2.80015625 8.4296875 -2.6328125 7.234375 C-2.08179569 4.41806687 -1.44203518 2.44782443 0 0 Z " fill="#06292D" transform="translate(64,11)"/>
<path d="M0 0 C1.8253125 0.00966797 1.8253125 0.00966797 3.6875 0.01953125 C7 0.1875 7 0.1875 9.25 0.76171875 C11.22733531 1.40702118 11.22733531 1.40702118 14 0.1875 C16.6875 1.125 16.6875 1.125 19 2.1875 C19 5.52083333 19 8.85416667 19 12.1875 C17.63875 12.1565625 17.63875 12.1565625 16.25 12.125 C13.15743185 12.05591007 13.15743185 12.05591007 10.875 12.75 C8.50706986 13.30251703 7.2313179 13.15440443 5 12.1875 C3.75 10.125 3.75 10.125 3 8.1875 C2.34 8.1875 1.68 8.1875 1 8.1875 C1 9.5075 1 10.8275 1 12.1875 C0.01 11.8575 -0.98 11.5275 -2 11.1875 C-2.495 7.7225 -2.495 7.7225 -3 4.1875 C-3.66 4.5175 -4.32 4.8475 -5 5.1875 C-4.34 5.8475 -3.68 6.5075 -3 7.1875 C-3.375 9.8125 -3.375 9.8125 -4 12.1875 C-8.51718381 13.55634358 -11.58774263 12.65825246 -16 11.1875 C-16.66 11.8475 -17.32 12.5075 -18 13.1875 C-20.09375 13.1640625 -20.09375 13.1640625 -22.5 12.8125 C-25.7393042 12.34640286 -25.7393042 12.34640286 -29 12.1875 C-29.99 12.1875 -30.98 12.1875 -32 12.1875 C-34.00309329 12.50171071 -36.00371336 12.8326046 -38 13.1875 C-39.37020997 9.07687009 -39.06276637 5.51837938 -39 1.1875 C-35.37 1.1875 -31.74 1.1875 -28 1.1875 C-27.67 2.8375 -27.34 4.4875 -27 6.1875 C-26.34 6.1875 -25.68 6.1875 -25 6.1875 C-24.34 4.5375 -23.68 2.8875 -23 1.1875 C-20 2.1875 -20 2.1875 -19 4.1875 C-18.34 3.1975 -17.68 2.2075 -17 1.1875 C-16.38125 1.3525 -15.7625 1.5175 -15.125 1.6875 C-12.62399401 2.275972 -11.55303382 2.51138323 -9.3125 1.19921875 C-6.13636621 -0.19033978 -3.45292148 -0.04023531 0 0 Z M-36 3.1875 C-36 3.8475 -36 4.5075 -36 5.1875 C-34.68 5.5175 -33.36 5.8475 -32 6.1875 C-32 5.5275 -32 4.8675 -32 4.1875 C-33.32 3.8575 -34.64 3.5275 -36 3.1875 Z M3 5.1875 C3 8.1875 3 8.1875 3 8.1875 Z M10 5.1875 C11 8.1875 11 8.1875 11 8.1875 Z M-36 7.1875 C-36 8.1775 -36 9.1675 -36 10.1875 C-34.68 9.8575 -33.36 9.5275 -32 9.1875 C-32.33 8.5275 -32.66 7.8675 -33 7.1875 C-33.99 7.1875 -34.98 7.1875 -36 7.1875 Z M-11 7.1875 C-10.67 8.1775 -10.34 9.1675 -10 10.1875 C-9.01 10.1875 -8.02 10.1875 -7 10.1875 C-7 9.5275 -7 8.8675 -7 8.1875 C-8.32 7.8575 -9.64 7.5275 -11 7.1875 Z M9 8.1875 C9 8.8475 9 9.5075 9 10.1875 C9.66 9.8575 10.32 9.5275 11 9.1875 C10.34 8.8575 9.68 8.5275 9 8.1875 Z " fill="#175E56" transform="translate(99,81.8125)"/>
<path d="M0 0 C1.32 0 2.64 0 4 0 C4 0.66 4 1.32 4 2 C5.65 2 7.3 2 9 2 C7.88362766 7.68874841 6.71493756 13.35994262 5.44140625 19.015625 C4.92504598 21.33696144 4.45187854 23.66529421 4 26 C3.34 26 2.68 26 2 26 C2.020625 26.804375 2.04125 27.60875 2.0625 28.4375 C2 31 2 31 1 32 C-0.51928038 32.07179964 -2.04167482 32.08392007 -3.5625 32.0625 C-4.38878906 32.05347656 -5.21507813 32.04445312 -6.06640625 32.03515625 C-6.70449219 32.02355469 -7.34257813 32.01195312 -8 32 C-8 29.11337984 -7.45997993 26.91446977 -6.64160156 24.17138672 C-5.889134 21.62479368 -5.18936451 19.06618445 -4.4921875 16.50390625 C-4.22792969 15.53388672 -3.96367188 14.56386719 -3.69140625 13.56445312 C-3.42199219 12.57380859 -3.15257813 11.58316406 -2.875 10.5625 C-2.59785156 9.54478516 -2.32070312 8.52707031 -2.03515625 7.47851562 C-1.35638376 4.98578217 -0.6780086 2.49294132 0 0 Z " fill="#082428" transform="translate(71,40)"/>
<path d="M0 0 C1.68756133 0.96432076 3.3497306 1.9731657 5 3 C5.928125 3.495 6.85625 3.99 7.8125 4.5 C10.86436192 7.98784219 10.60137564 10.73890824 10.6640625 15.24609375 C9.7435293 19.06359906 7.9426979 20.43161008 5 23 C4.4740625 23.46301514 3.948125 23.92603027 3.40625 24.40307617 C1.68058427 25.91077102 -0.06313251 27.39489371 -1.8125 28.875 C-3.05628831 29.93324275 -4.29977957 30.99183473 -5.54296875 32.05078125 C-6.43508057 32.8099585 -6.43508057 32.8099585 -7.34521484 33.58447266 C-10.04158339 35.89098561 -12.69993146 38.23998431 -15.3515625 40.59765625 C-20.5264624 45 -20.5264624 45 -23 45 C-24.34442789 40.79866286 -24.80935581 36.20300591 -23.26953125 32.01171875 C-21.68422256 29.49961421 -19.87376401 28.08896949 -17.5 26.3125 C-16.7059375 25.71050781 -15.911875 25.10851562 -15.09375 24.48828125 C-13 23 -13 23 -11 22 C-12.5885342 26.28904235 -15.43127368 28.32345526 -19 31 C-19.66 31 -20.32 31 -21 31 C-20.34 33.31 -19.68 35.62 -19 38 C-18.401875 37.505 -17.80375 37.01 -17.1875 36.5 C-15 35 -15 35 -12 35 C-11.67 34.01 -11.34 33.02 -11 32 C-10.01 32 -9.02 32 -8 32 C-7.3185177 30.10820797 -7.3185177 30.10820797 -7 28 C-7.66 27.34 -8.32 26.68 -9 26 C-7.02 25.67 -5.04 25.34 -3 25 C-2.67 23.68 -2.34 22.36 -2 21 C-0.02 21 1.96 21 4 21 C4.91397824 15.31302429 4.91397824 10.68697571 4 5 C2.68 5.33 1.36 5.66 0 6 C0.66 4.68 1.32 3.36 2 2 C1.34 2 0.68 2 0 2 C0 1.34 0 0.68 0 0 Z " fill="#1B988C" transform="translate(133,28)"/>
<path d="M0 0 C1.33542939 0.32483418 2.66961551 0.6550855 4 1 C4.99 0.67 5.98 0.34 7 0 C9.6875 0.9375 9.6875 0.9375 12 2 C12 5.33333333 12 8.66666667 12 12 C10.63875 11.9690625 10.63875 11.9690625 9.25 11.9375 C6.15743185 11.86841007 6.15743185 11.86841007 3.875 12.5625 C1.50706986 13.11501703 0.2313179 12.96690443 -2 12 C-3.25 9.9375 -3.25 9.9375 -4 8 C-4.66 8 -5.32 8 -6 8 C-6 9.32 -6 10.64 -6 12 C-6.99 11.67 -7.98 11.34 -9 11 C-9.144375 9.88625 -9.28875 8.7725 -9.4375 7.625 C-9.78372035 4.17857953 -9.78372035 4.17857953 -11 2 C-7.27660537 -0.48226309 -4.30613762 -0.3138076 0 0 Z M-4 5 C-4 8 -4 8 -4 8 Z M3 5 C4 8 4 8 4 8 Z M2 8 C2 8.66 2 9.32 2 10 C2.66 9.67 3.32 9.34 4 9 C3.34 8.67 2.68 8.34 2 8 Z " fill="#2C7165" transform="translate(106,82)"/>
<path d="M0 0 C0.66 0.33 1.32 0.66 2 1 C1.45484328 8.08703739 -0.60918605 14.32796106 -3 21 C-7.68091299 21 -8.62101604 20.00354129 -12 17 C-11.71515154 15.26969709 -11.42180062 13.54079286 -11.125 11.8125 C-10.96257812 10.84957031 -10.80015625 9.88664062 -10.6328125 8.89453125 C-10.01426342 6.06524192 -9.25183458 3.61030692 -8 1 C-5.26094655 -0.36952673 -3.02912668 -0.12621361 0 0 Z " fill="#249282" transform="translate(102,11)"/>
<path d="M0 0 C0.33 0 0.66 0 1 0 C1.2246285 1.39330381 1.4289245 2.78989209 1.625 4.1875 C1.79902344 5.35345703 1.79902344 5.35345703 1.9765625 6.54296875 C2.00590381 9.61891587 1.48002467 11.29366917 0 14 C-2.53125 16.45703125 -2.53125 16.45703125 -5.5 18.8125 C-6.96953125 19.99779297 -6.96953125 19.99779297 -8.46875 21.20703125 C-11 23 -11 23 -13 23 C-12.67 22.01 -12.34 21.02 -12 20 C-11.34 20 -10.68 20 -10 20 C-9.7525 19.401875 -9.505 18.80375 -9.25 18.1875 C-7.47466126 15.08065721 -5.15763421 13.5788171 -2 12 C-2 9.69 -2 7.38 -2 5 C-7.48670138 9.29394021 -9.83158539 11.98951234 -11 19 C-12.65 19 -14.3 19 -16 19 C-16.33 19.66 -16.66 20.32 -17 21 C-19.32315031 21.7013284 -21.65789079 22.36485174 -24 23 C-27.1923011 24.2564906 -27.1923011 24.2564906 -29 27 C-29 24 -29 24 -27.5390625 22.39453125 C-26.90742188 21.87246094 -26.27578125 21.35039062 -25.625 20.8125 C-24.68527344 20.01779297 -24.68527344 20.01779297 -23.7265625 19.20703125 C-22 18 -22 18 -20 18 C-20 17.34 -20 16.68 -20 16 C-18.63671875 14.80859375 -18.63671875 14.80859375 -16.6875 13.4375 C-7.98452866 7.14839885 -7.98452866 7.14839885 0 0 Z " fill="#05181B" transform="translate(40,10)"/>
<path d="M0 0 C1.32 0 2.64 0 4 0 C3.64901538 6.69291357 2.95310996 11.97565568 0 18 C-0.68836513 19.99263591 -1.36281399 21.99041337 -2 24 C-3.65 24 -5.3 24 -7 24 C-8.2380014 20.42355152 -7.74926071 17.66305234 -7 14 C-6.34 14 -5.68 14 -5 14 C-5.33 13.01 -5.66 12.02 -6 11 C-5.5625 8.8125 -5.5625 8.8125 -5 7 C-4.34 7 -3.68 7 -3 7 C-2.814375 5.824375 -2.814375 5.824375 -2.625 4.625 C-2 2 -2 2 0 0 Z " fill="#11A296" transform="translate(82,14)"/>
<path d="M0 0 C6.75 -0.125 6.75 -0.125 9 1 C8.50341703 6.66104589 7.45489316 10.87674471 5 16 C1.28400809 16.20086443 0.22791555 16.1519437 -3 14 C-3.65423391 8.43901174 -2.38864199 4.87681074 0 0 Z " fill="#228C80" transform="translate(64,11)"/>
<path d="M0 0 C3.63 0 7.26 0 11 0 C11.33 1.65 11.66 3.3 12 5 C12.66 5 13.32 5 14 5 C14.66 3.35 15.32 1.7 16 0 C19 1 19 1 21 3 C21 3.99 21 4.98 21 6 C20.01 6 19.02 6 18 6 C18 4.68 18 3.36 18 2 C17.34 2 16.68 2 16 2 C15.67 3.32 15.34 4.64 15 6 C14.34 6 13.68 6 13 6 C13 6.66 13 7.32 13 8 C14.670625 7.9690625 14.670625 7.9690625 16.375 7.9375 C20 8 20 8 22 9 C21.67 9.99 21.34 10.98 21 12 C20.37351562 11.9278125 19.74703125 11.855625 19.1015625 11.78125 C17.87566406 11.64203125 17.87566406 11.64203125 16.625 11.5 C15.81289062 11.4071875 15.00078125 11.314375 14.1640625 11.21875 C12.03087175 10.96647649 12.03087175 10.96647649 10 11 C9.01 11 8.02 11 7 11 C4.99690671 11.31421071 2.99628664 11.6451046 1 12 C-0.37020997 7.88937009 -0.06276637 4.33087938 0 0 Z M3 2 C3 2.66 3 3.32 3 4 C4.32 4.33 5.64 4.66 7 5 C7 4.34 7 3.68 7 3 C5.68 2.67 4.36 2.34 3 2 Z M3 6 C3 6.99 3 7.98 3 9 C4.32 8.67 5.64 8.34 7 8 C6.67 7.34 6.34 6.68 6 6 C5.01 6 4.02 6 3 6 Z " fill="#0C4944" transform="translate(60,83)"/>
<path d="M0 0 C4.90771954 2.20180167 8.61724239 4.94007601 12.625 8.4375 C13.46417969 9.15389648 13.46417969 9.15389648 14.3203125 9.88476562 C17.33749903 12.4785498 20.22847723 15.14059967 23 18 C20.69 17.67 18.38 17.34 16 17 C15.814375 16.21625 15.62875 15.4325 15.4375 14.625 C14.963125 13.75875 14.48875 12.8925 14 12 C11.66989091 11.32215008 9.33640176 10.65583207 7 10 C5.1875 7.4375 5.1875 7.4375 4 5 C3.34 4.67 2.68 4.34 2 4 C2 5.98 2 7.96 2 10 C2.66 10 3.32 10 4 10 C6.45698092 12.0474841 7.58884232 14.17768465 9 17 C9.66 17.33 10.32 17.66 11 18 C11 18.99 11 19.98 11 21 C8.06559801 19.65263662 5.74926573 18.11433035 3.3125 16 C2.71050781 15.484375 2.10851562 14.96875 1.48828125 14.4375 C-0.50713717 12.51016672 -0.97557938 11.43167038 -1.1328125 8.65234375 C-1.13023438 7.75644531 -1.12765625 6.86054688 -1.125 5.9375 C-1.12757812 5.03902344 -1.13015625 4.14054688 -1.1328125 3.21484375 C-1 1 -1 1 0 0 Z " fill="#278E7F" transform="translate(110,10)"/>
<path d="M0 0 C2.6875 2.3125 2.6875 2.3125 5 5 C5.763125 5.598125 6.52625 6.19625 7.3125 6.8125 C9.89324842 10.15791462 9.27650533 12.85241998 9 17 C7.72689688 16.06558465 6.456612 15.12732889 5.1875 14.1875 C4.47980469 13.66542969 3.77210937 13.14335938 3.04296875 12.60546875 C1 11 1 11 -0.57421875 9.36328125 C-2.06902874 7.73973309 -2.06902874 7.73973309 -5 7 C-5.495 6.154375 -5.99 5.30875 -6.5 4.4375 C-6.995 3.633125 -7.49 2.82875 -8 2 C-8.99 2 -9.98 2 -11 2 C-11 1.34 -11 0.68 -11 0 C-7.13489855 -1.39143652 -3.94568054 -0.96911452 0 0 Z " fill="#07292E" transform="translate(30,52)"/>
<path d="M0 0 C0.66 0.99 1.32 1.98 2 3 C0.6875 4.5 0.6875 4.5 -1 6 C-1.99 6 -2.98 6 -4 6 C-4 6.66 -4 7.32 -4 8 C-4.66 8 -5.32 8 -6 8 C-6 8.66 -6 9.32 -6 10 C-6.66 10 -7.32 10 -8 10 C-7.67 11.32 -7.34 12.64 -7 14 C-6.01 13.34 -5.02 12.68 -4 12 C-3.67 12.99 -3.34 13.98 -3 15 C-3.99 15.33 -4.98 15.66 -6 16 C-6.33 16.66 -6.66 17.32 -7 18 C-8.99145391 19.01691264 -10.99187074 20.01642648 -13 21 C-13.66 21.66 -14.32 22.32 -15 23 C-15.96517514 19.89312235 -16.4848228 17.23902895 -16 14 C-13.92061395 11.75530711 -11.77717409 10.24451414 -9.19921875 8.60546875 C-6.81905248 6.8679051 -6.19699632 5.62480359 -5 3 C-2.375 1.25 -2.375 1.25 0 0 Z " fill="#129F94" transform="translate(128,45)"/>
<path d="M0 0 C1.70632228 0.93072125 3.36165371 1.95424705 5 3 C5.63550781 3.37898438 6.27101563 3.75796875 6.92578125 4.1484375 C9.08014679 5.64224607 10.53314263 6.81494836 12 9 C12.29863169 12.8036247 11.78779464 16.27949084 11 20 C8.25342589 18.68747786 5.74276346 17.24706499 3.25 15.5 C2.63640625 15.0771875 2.0228125 14.654375 1.390625 14.21875 C0.93171875 13.8165625 0.4728125 13.414375 0 13 C0 12.34 0 11.68 0 11 C-0.556875 10.731875 -1.11375 10.46375 -1.6875 10.1875 C-5.57498316 8.19122486 -9.04519577 6.26583625 -12 3 C-11.67 2.34 -11.34 1.68 -11 1 C-9.125 1.1875 -9.125 1.1875 -7 2 C-6.33333333 3.66666667 -5.66666667 5.33333333 -5 7 C-2.95894361 7.88693303 -2.95894361 7.88693303 -1 8 C-1 8.66 -1 9.32 -1 10 C-0.443125 10.2475 0.11375 10.495 0.6875 10.75 C3.39971127 12.21606015 5.63587365 14.02989471 8 16 C8.67174175 12.79767901 8.67174175 12.79767901 8 9 C6.06968939 6.88343135 4.03036412 5.21053667 1.75 3.48046875 C1.1725 2.99191406 0.595 2.50335938 0 2 C0 1.34 0 0.68 0 0 Z " fill="#021215" transform="translate(30,52)"/>
<path d="M0 0 C1.68756133 0.96432076 3.3497306 1.9731657 5 3 C5.928125 3.495 6.85625 3.99 7.8125 4.5 C10.9211658 8.05276091 10.43301549 10.96040158 10.2734375 15.5390625 C10 18 10 18 9 20 C7.35 20 5.7 20 4 20 C4.185625 19.01 4.37125 18.02 4.5625 17 C5.17661683 12.82912322 4.65520905 9.14965731 4 5 C2.68 5.33 1.36 5.66 0 6 C0.66 4.68 1.32 3.36 2 2 C1.34 2 0.68 2 0 2 C0 1.34 0 0.68 0 0 Z " fill="#19A196" transform="translate(133,28)"/>
<path d="M0 0 C5.625 -0.25 5.625 -0.25 9 2 C9.55797435 5.66668859 9.44090109 7.36314287 7.3125 10.4375 C5 12 5 12 2.3125 11.875 C0 11 0 11 -1 9 C-0.91348369 7.45386986 -0.75997364 5.91090613 -0.5625 4.375 C-0.46066406 3.55773437 -0.35882813 2.74046875 -0.25390625 1.8984375 C-0.17011719 1.27195312 -0.08632813 0.64546875 0 0 Z M2 2 C2 3.98 2 5.96 2 8 C2.99 8 3.98 8 5 8 C5.66 6.68 6.32 5.36 7 4 C6.34 3.34 5.68 2.68 5 2 C4.01 2 3.02 2 2 2 Z " fill="#050D0F" transform="translate(51,83)"/>
<path d="M0 0 C3.1875 0.875 3.1875 0.875 6 2 C6 4.31 6 6.62 6 9 C2.67465243 10.10844919 0.37817425 9.84454356 -3 9 C-3.1875 5.625 -3.1875 5.625 -3 2 C-2.01 1.34 -1.02 0.68 0 0 Z " fill="#2B7567" transform="translate(112,82)"/>
<path d="M0 0 C1.26155806 3.78467418 0.55614768 5.77226967 -0.375 9.625 C-0.65085937 10.79289062 -0.92671875 11.96078125 -1.2109375 13.1640625 C-2 16 -2 16 -3 17 C-4.99958364 17.04080783 -7.00045254 17.04254356 -9 17 C-9 16.34 -9 15.68 -9 15 C-9.66 15 -10.32 15 -11 15 C-11.625 11.625 -11.625 11.625 -12 8 C-11.34 7.34 -10.68 6.68 -10 6 C-9.67 7.98 -9.34 9.96 -9 12 C-7.35 12 -5.7 12 -4 12 C-3.81824219 11.07767578 -3.81824219 11.07767578 -3.6328125 10.13671875 C-3.46523437 9.32847656 -3.29765625 8.52023438 -3.125 7.6875 C-2.96257812 6.88699219 -2.80015625 6.08648437 -2.6328125 5.26171875 C-2 3 -2 3 0 0 Z " fill="#267B74" transform="translate(84,25)"/>
<path d="M0 0 C0.66 0 1.32 0 2 0 C1.4055384 4.85476972 0.40416383 9.31945389 -1 14 C-1.54601637 15.97797108 -2.08745637 17.95720954 -2.625 19.9375 C-2.88539062 20.89527344 -3.14578125 21.85304688 -3.4140625 22.83984375 C-3.70410156 23.90912109 -3.70410156 23.90912109 -4 25 C-4.99 23.68 -5.98 22.36 -7 21 C-6.34 21 -5.68 21 -5 21 C-4.95101562 20.38511719 -4.90203125 19.77023438 -4.8515625 19.13671875 C-4.77679688 18.32847656 -4.70203125 17.52023438 -4.625 16.6875 C-4.52058594 15.48673828 -4.52058594 15.48673828 -4.4140625 14.26171875 C-4 12 -4 12 -2 9 C-2.99 7.68 -3.98 6.36 -5 5 C-4.34 5 -3.68 5 -3 5 C-2.690625 4.360625 -2.38125 3.72125 -2.0625 3.0625 C-1 1 -1 1 0 0 Z " fill="#051D1F" transform="translate(64,36)"/>
<path d="M0 0 C2 2 2 2 2.3125 5.4375 C2 9 2 9 0.8125 10.9375 C-1.56041618 12.32851983 -3.29686424 12.21917317 -6 12 C-7.8454602 8.88578592 -8.46369062 6.61678684 -8 3 C-5.84871852 -0.2835349 -3.77529378 -0.48401202 0 0 Z M-4 2 C-4.66 3.32 -5.32 4.64 -6 6 C-5.01 7.485 -5.01 7.485 -4 9 C-2.68 8.67 -1.36 8.34 0 8 C0 6.35 0 4.7 0 3 C-1.32 2.67 -2.64 2.34 -4 2 Z " fill="#091012" transform="translate(48,83)"/>
<path d="M0 0 C0 3 0 3 -1.4609375 4.60546875 C-2.09257813 5.12753906 -2.72421875 5.64960937 -3.375 6.1875 C-4.00148438 6.71730469 -4.62796875 7.24710938 -5.2734375 7.79296875 C-7 9 -7 9 -9 9 C-8.814375 10.11375 -8.62875 11.2275 -8.4375 12.375 C-8 16 -8 16 -9 18 C-7.35 18 -5.7 18 -4 18 C-5.62339805 19.70884005 -7.29319053 21.37446717 -9 23 C-9.66 23 -10.32 23 -11 23 C-12.34461287 18.79808477 -12.80597801 14.20560648 -11.2734375 10.01171875 C-9.67448243 7.48576211 -7.83545928 6.08691288 -5.4375 4.3125 C-4.63183594 3.71050781 -3.82617188 3.10851563 -2.99609375 2.48828125 C-2.33738281 1.99714844 -1.67867187 1.50601563 -1 1 C-0.67 0.67 -0.34 0.34 0 0 Z " fill="#2B786E" transform="translate(121,50)"/>
<path d="M0 0 C0.66 0.66 1.32 1.32 2 2 C1.625 4.625 1.625 4.625 1 7 C-0.65 7 -2.3 7 -4 7 C-4.33 7.66 -4.66 8.32 -5 9 C-7.32315031 9.7013284 -9.65789079 10.36485174 -12 11 C-15.1923011 12.2564906 -15.1923011 12.2564906 -17 15 C-17 14.01 -17 13.02 -17 12 C-12.7959742 7.889397 -6.11760655 2 0 2 C0 1.34 0 0.68 0 0 Z " fill="#06242B" transform="translate(28,22)"/>
<path d="M0 0 C1.44977894 2.34112451 2.04314411 3.5796929 1.7578125 6.359375 C1.54898438 7.14828125 1.34015625 7.9371875 1.125 8.75 C0.92132813 9.54921875 0.71765625 10.3484375 0.5078125 11.171875 C0.34023437 11.77515625 0.17265625 12.3784375 0 13 C3.465 12.505 3.465 12.505 7 12 C6.67 13.65 6.34 15.3 6 17 C1.31908701 17 0.37898396 16.00354129 -3 13 C-2.69128878 11.20767663 -2.37790936 9.41615679 -2.0625 7.625 C-1.88847656 6.62726562 -1.71445313 5.62953125 -1.53515625 4.6015625 C-1 2 -1 2 0 0 Z " fill="#29887F" transform="translate(93,15)"/>
<path d="M0 0 C2.31 0 4.62 0 7 0 C7.33 0.99 7.66 1.98 8 3 C6.35 2.67 4.7 2.34 3 2 C3 2.66 3 3.32 3 4 C4.65 4.33 6.3 4.66 8 5 C7.67 6.32 7.34 7.64 7 9 C6.67 8.34 6.34 7.68 6 7 C5.34 7 4.68 7 4 7 C3.67 7.66 3.34 8.32 3 9 C3.99 8.67 4.98 8.34 6 8 C6 8.99 6 9.98 6 11 C4.35 11.33 2.7 11.66 1 12 C0.03929566 9.11788698 -0.10581883 7.30149956 -0.0625 4.3125 C-0.05347656 3.50425781 -0.04445312 2.69601563 -0.03515625 1.86328125 C-0.02355469 1.24839844 -0.01195312 0.63351563 0 0 Z " fill="#081516" transform="translate(60,83)"/>
<path d="M0 0 C0.99 0.33 1.98 0.66 3 1 C3.24042276 5.08718695 2.42258812 8.17679443 1 12 C-0.65 12.33 -2.3 12.66 -4 13 C-4.17942163 9.05272412 -4.09350689 6.4019487 -2 3 C-1.34 3 -0.68 3 0 3 C0 2.01 0 1.02 0 0 Z " fill="#12A399" transform="translate(97,15)"/>
<path d="M0 0 C3.99881788 0.61520275 6.80358226 2.60268669 10 5 C10 5.66 10 6.32 10 7 C10.99 7 11.98 7 13 7 C13.25 9.3125 13.25 9.3125 13 12 C11 13.8125 11 13.8125 9 15 C9 11 9 11 10 9 C9.46375 8.773125 8.9275 8.54625 8.375 8.3125 C5.17539839 6.54429911 2.70962777 4.46329797 0 2 C0 1.34 0 0.68 0 0 Z " fill="#21998E" transform="translate(122,31)"/>
<path d="M0 0 C1.66611905 -0.042721 3.33382885 -0.04063832 5 0 C5.33 0.33 5.66 0.66 6 1 C5.8125 4.4375 5.8125 4.4375 5 8 C2.9375 9.4375 2.9375 9.4375 1 10 C0.01 9.01 -0.98 8.02 -2 7 C-1.34 4.69 -0.68 2.38 0 0 Z " fill="#13A396" transform="translate(65,13)"/>
<path d="M0 0 C4.32397533 0.51094594 6.40974925 1.85713887 9.5625 4.8125 C10.30628906 5.49957031 11.05007812 6.18664062 11.81640625 6.89453125 C13.90252826 8.90601562 15.96016244 10.94166051 18 13 C15.69 12.67 13.38 12.34 11 12 C10.814375 11.21625 10.62875 10.4325 10.4375 9.625 C9.963125 8.75875 9.48875 7.8925 9 7 C7.845 6.67 6.69 6.34 5.5 6 C4.345 5.67 3.19 5.34 2 5 C0.5625 2.375 0.5625 2.375 0 0 Z " fill="#249086" transform="translate(115,15)"/>
<path d="M0 0 C1.4540625 0.0309375 1.4540625 0.0309375 2.9375 0.0625 C3.2675 0.7225 3.5975 1.3825 3.9375 2.0625 C1.9575 2.7225 -0.0225 3.3825 -2.0625 4.0625 C-1.7325 5.3825 -1.4025 6.7025 -1.0625 8.0625 C0.2575 8.0625 1.5775 8.0625 2.9375 8.0625 C3.2675 9.0525 3.5975 10.0425 3.9375 11.0625 C1.6875 11.8125 1.6875 11.8125 -1.0625 12.0625 C-3.4375 10.5625 -3.4375 10.5625 -5.0625 8.0625 C-4.65737535 0.09504848 -4.65737535 0.09504848 0 0 Z " fill="#0D1114" transform="translate(37.0625,82.9375)"/>
<path d="M0 0 C1.70632228 0.93072125 3.36165371 1.95424705 5 3 C5.63550781 3.37898438 6.27101563 3.75796875 6.92578125 4.1484375 C9.08014679 5.64224607 10.53314263 6.81494836 12 9 C12.29863169 12.8036247 11.78779464 16.27949084 11 20 C10.34 20 9.68 20 9 20 C9.020625 19.28714844 9.04125 18.57429688 9.0625 17.83984375 C8.99223319 11.85537112 8.99223319 11.85537112 6.15234375 6.78125 C4.71371861 5.58366435 3.23478194 4.4323828 1.71484375 3.33984375 C1.14894531 2.89769531 0.58304688 2.45554688 0 2 C0 1.34 0 0.68 0 0 Z " fill="#0A1D1F" transform="translate(30,52)"/>
<path d="M0 0 C-2.75 3.875 -2.75 3.875 -5 5 C-5 5.66 -5 6.32 -5 7 C-6.65 7 -8.3 7 -10 7 C-10.33 5.35 -10.66 3.7 -11 2 C-6.89657963 -0.38570952 -4.61380251 -1.49270081 0 0 Z " fill="#18544A" transform="translate(97,83)"/>
<path d="M0 0 C0.66 0 1.32 0 2 0 C2.20086443 3.71599191 2.1519437 4.77208445 0 8 C1.32 8.33 2.64 8.66 4 9 C4.66 7.02 5.32 5.04 6 3 C6.66 3 7.32 3 8 3 C7.125 9.875 7.125 9.875 6 11 C3.32941149 11.14115161 0.67567762 11.04247107 -2 11 C-1.125 3.375 -1.125 3.375 0 0 Z " fill="#071B1D" transform="translate(50,61)"/>
<path d="M0 0 C0.33 0.66 0.66 1.32 1 2 C1.99 2.33 2.98 2.66 4 3 C3.67 4.65 3.34 6.3 3 8 C2.34 8 1.68 8 1 8 C1 8.66 1 9.32 1 10 C1.99 10 2.98 10 4 10 C5.38671875 11.53125 5.38671875 11.53125 6.6875 13.5 C7.12449219 14.1496875 7.56148437 14.799375 8.01171875 15.46875 C8.33785156 15.9740625 8.66398437 16.479375 9 17 C5.21453864 15.39845866 1.30511997 13.48559663 -1 10 C-1.21672344 6.54828283 -0.72021519 3.37191658 0 0 Z " fill="#04151C" transform="translate(9,36)"/>
<path d="M0 0 C0.99 0.33 1.98 0.66 3 1 C3 1.33 3 1.66 3 2 C4.670625 1.9690625 4.670625 1.9690625 6.375 1.9375 C10 2 10 2 12 3 C11.67 3.99 11.34 4.98 11 6 C10.37351562 5.9278125 9.74703125 5.855625 9.1015625 5.78125 C8.28429687 5.6884375 7.46703125 5.595625 6.625 5.5 C5.81289062 5.4071875 5.00078125 5.314375 4.1640625 5.21875 C2.03087175 4.96647649 2.03087175 4.96647649 0 5 C-0.99 5 -1.98 5 -3 5 C-3 4.01 -3 3.02 -3 2 C-2.01 1.34 -1.02 0.68 0 0 Z " fill="#113F39" transform="translate(70,89)"/>
<path d="M0 0 C0.66 0.33 1.32 0.66 2 1 C1.7834375 2.2684375 1.7834375 2.2684375 1.5625 3.5625 C0.44497438 9.74950897 0.44497438 9.74950897 0 16 C-1.32 16.33 -2.64 16.66 -4 17 C-2.91103333 11.24237834 -1.70663707 5.60752181 0 0 Z " fill="#081D23" transform="translate(55,43)"/>
<path d="M0 0 C3.5625 0.125 3.5625 0.125 5.5625 1.125 C5.2325 3.435 4.9025 5.745 4.5625 8.125 C4.2325 8.125 3.9025 8.125 3.5625 8.125 C3.2325 6.475 2.9025 4.825 2.5625 3.125 C0.9125 2.795 -0.7375 2.465 -2.4375 2.125 C-2.7675 3.775 -3.0975 5.425 -3.4375 7.125 C-4.0975 7.125 -4.7575 7.125 -5.4375 7.125 C-4.40016044 0.16000583 -4.40016044 0.16000583 0 0 Z " fill="#368279" transform="translate(67.4375,10.875)"/>
<path d="M0 0 C0.66 0.99 1.32 1.98 2 3 C0.6875 4.5 0.6875 4.5 -1 6 C-1.99 6 -2.98 6 -4 6 C-4 6.66 -4 7.32 -4 8 C-4.66 8 -5.32 8 -6 8 C-6 8.66 -6 9.32 -6 10 C-6.99 9.67 -7.98 9.34 -9 9 C-6.46636932 4.77728219 -4.43379675 2.21689838 0 0 Z " fill="#1C9589" transform="translate(128,45)"/>
<path d="M0 0 C1.32 0.33 2.64 0.66 4 1 C4 2.65 4 4.3 4 6 C2.02 6.33 0.04 6.66 -2 7 C-1.34 4.69 -0.68 2.38 0 0 Z " fill="#2D8479" transform="translate(111,84)"/>
<path d="M0 0 C2.64 0 5.28 0 8 0 C8.21192221 5.19209404 7.5912689 9.126739 6 14 C5.34 13.34 4.68 12.68 4 12 C4.20703125 9.90625 4.20703125 9.90625 4.8125 7.5 C5.00457031 6.7059375 5.19664063 5.911875 5.39453125 5.09375 C6 3 6 3 7 1 C4.69 1 2.38 1 0 1 C0 0.67 0 0.34 0 0 Z " fill="#2F8A79" transform="translate(80,11)"/>
<path d="M0 0 C2.35953094 2.35953094 2.49141413 3.77895617 3 7 C2.34 7 1.68 7 1 7 C0.67 7.66 0.34 8.32 0 9 C-1.32 7.68 -2.64 6.36 -4 5 C-2.93453047 2.86906094 -1.70840281 1.63412443 0 0 Z " fill="#062A30" transform="translate(69,62)"/>
<path d="M0 0 C3.60156104 2.05803488 6.88992126 4.24535883 10 7 C10 7.66 10 8.32 10 9 C7.83125748 8.49396008 6.00032373 8.00016187 4 7 C4 6.34 4 5.68 4 5 C2.68 5.33 1.36 5.66 0 6 C0.66 4.68 1.32 3.36 2 2 C1.34 2 0.68 2 0 2 C0 1.34 0 0.68 0 0 Z " fill="#278A75" transform="translate(133,28)"/>
<path d="M0 0 C0.66 0 1.32 0 2 0 C1.343621 4.48525648 0.29925791 8.66914029 -1 13 C-1.66 13 -2.32 13 -3 13 C-2.67 9.37 -2.34 5.74 -2 2 C-1.34 2 -0.68 2 0 2 C0 1.34 0 0.68 0 0 Z " fill="#051C1E" transform="translate(60,26)"/>
<path d="M0 0 C2 0 2 0 3.5 1.25 C5.05889736 3.06871358 5.93435591 4.86871183 7 7 C7.66 7.33 8.32 7.66 9 8 C9 8.99 9 9.98 9 11 C2.73913043 7.86956522 2.73913043 7.86956522 1 3 C0.67 2.01 0.34 1.02 0 0 Z " fill="#219984" transform="translate(112,20)"/>
<path d="M0 0 C1.25541557 3.76624671 0.37061958 5.37188934 -1 9 C-2.32 8.67 -3.64 8.34 -5 8 C-5.33 6.35 -5.66 4.7 -6 3 C-5.195625 2.87625 -4.39125 2.7525 -3.5625 2.625 C-2.716875 2.41875 -1.87125 2.2125 -1 2 C-0.67 1.34 -0.34 0.68 0 0 Z " fill="#0A2B30" transform="translate(87,61)"/>
<path d="M0 0 C1.66611905 -0.042721 3.33382885 -0.04063832 5 0 C5.33 0.33 5.66 0.66 6 1 C5.71269945 3.33944736 5.38063221 5.6739143 5 8 C4 5 4 5 4 3 C3.34 3 2.68 3 2 3 C1.67 3.66 1.34 4.32 1 5 C0.34 5 -0.32 5 -1 5 C-0.67 3.35 -0.34 1.7 0 0 Z " fill="#19988C" transform="translate(65,13)"/>
<path d="M0 0 C5.875 2.75 5.875 2.75 7 5 C4.03 4.505 4.03 4.505 1 4 C1 5.32 1 6.64 1 8 C0.34 8 -0.32 8 -1 8 C-1.04241723 5.66705225 -1.04092937 3.33297433 -1 1 C-0.67 0.67 -0.34 0.34 0 0 Z " fill="#43867B" transform="translate(110,10)"/>
<path d="M0 0 C1.98 0.495 1.98 0.495 4 1 C4 3.97 4 6.94 4 10 C3.34 9.67 2.68 9.34 2 9 C1.66666667 7.33333333 1.33333333 5.66666667 1 4 C0.34 3.67 -0.32 3.34 -1 3 C-0.67 2.01 -0.34 1.02 0 0 Z " fill="#16645D" transform="translate(82,83)"/>
<path d="M0 0 C0.66 0 1.32 0 2 0 C2.08912219 3.83225427 1.87867729 7.26562152 1 11 C0.34 11 -0.32 11 -1 11 C-1.33 11.99 -1.66 12.98 -2 14 C-3.47794803 10.15733512 -2.40602326 7.74939537 -1 4 C-0.65023242 2.67088318 -0.30903983 1.33917261 0 0 Z " fill="#041B1C" transform="translate(74,55)"/>
<path d="M0 0 C0.33 0.99 0.66 1.98 1 3 C0.01 4.485 0.01 4.485 -1 6 C-2.9375 5.1875 -2.9375 5.1875 -5 4 C-5.33 3.01 -5.66 2.02 -6 1 C-4.02 0.67 -2.04 0.34 0 0 Z " fill="#2C7E7B" transform="translate(99,27)"/>
<path d="M0 0 C1.9453125 -0.29296875 1.9453125 -0.29296875 4.125 -0.1875 C5.40375 -0.125625 6.6825 -0.06375 8 0 C8 0.66 8 1.32 8 2 C1.71428571 4.42857143 1.71428571 4.42857143 -2 3 C-1.34 2.01 -0.68 1.02 0 0 Z " fill="#259183" transform="translate(79,12)"/>
<path d="M0 0 C0.99 0.33 1.98 0.66 3 1 C1.8803014 2.00593243 0.7540588 3.0045849 -0.375 4 C-1.00148438 4.556875 -1.62796875 5.11375 -2.2734375 5.6875 C-4 7 -4 7 -6 7 C-6.33 7.66 -6.66 8.32 -7 9 C-7 6 -7 6 -5.57421875 4.359375 C-4.95160156 3.82828125 -4.32898438 3.2971875 -3.6875 2.75 C-3.07261719 2.20859375 -2.45773438 1.6671875 -1.82421875 1.109375 C-1.22222656 0.74328125 -0.62023437 0.3771875 0 0 Z " fill="#031417" transform="translate(18,28)"/>
<path d="M0 0 C0.66 0.33 1.32 0.66 2 1 C1.01 3.31 0.02 5.62 -1 8 C-3.375 8.1875 -3.375 8.1875 -6 8 C-6.66 7.01 -7.32 6.02 -8 5 C-5.69 5.33 -3.38 5.66 -1 6 C-0.67 4.02 -0.34 2.04 0 0 Z " fill="#1F6B65" transform="translate(70,19)"/>
<path d="M0 0 C0.66 0.33 1.32 0.66 2 1 C1.51171875 7.0546875 1.51171875 7.0546875 1 9 C0.01 9.66 -0.98 10.32 -2 11 C-1.125 3.375 -1.125 3.375 0 0 Z " fill="#071D1F" transform="translate(69,48)"/>
<path d="M0 0 C1.60080151 4.00200378 0.29279692 7.04556236 -1 11 C-1.99 10.01 -2.98 9.02 -4 8 C-3.34 7.34 -2.68 6.68 -2 6 C-1.63557767 4.33985384 -1.30027117 2.67293936 -1 1 C-0.67 0.67 -0.34 0.34 0 0 Z " fill="#041C21" transform="translate(94,42)"/>
<path d="M0 0 C0.33 0 0.66 0 1 0 C1.1953125 6.0546875 1.1953125 6.0546875 1 8 C0.34 8.66 -0.32 9.32 -1 10 C-1.33 9.67 -1.66 9.34 -2 9 C-1.9140625 7.1875 -1.9140625 7.1875 -1.625 5 C-1.53476563 4.278125 -1.44453125 3.55625 -1.3515625 2.8125 C-1 1 -1 1 0 0 Z " fill="#3C927E" transform="translate(142,38)"/>
<path d="M0 0 C1.32 0.33 2.64 0.66 4 1 C1.36 2.98 -1.28 4.96 -4 7 C-4.33 6.01 -4.66 5.02 -5 4 C-3.35 3.34 -1.7 2.68 0 2 C0 1.34 0 0.68 0 0 Z " fill="#2D9781" transform="translate(137,48)"/>
<path d="M0 0 C2.88575819 0.39803561 3.82189513 0.79009069 5.75 3.0625 C6.1625 3.701875 6.575 4.34125 7 5 C6.67 5.66 6.34 6.32 6 7 C3.95880212 5.38405168 1.95927063 3.7143618 0 2 C0 1.34 0 0.68 0 0 Z " fill="#2D9289" transform="translate(122,31)"/>
<path d="M0 0 C2.97 0.33 5.94 0.66 9 1 C8.67 1.66 8.34 2.32 8 3 C5 3 2 3 -1 3 C-0.67 2.01 -0.34 1.02 0 0 Z " fill="#32665E" transform="translate(110,91)"/>
<path d="M0 0 C3.1414436 1.83250877 6.22602027 3.63698023 9 6 C9 6.66 9 7.32 9 8 C5.56247993 6.4722133 2.81046312 4.49818944 0 2 C0 1.34 0 0.68 0 0 Z " fill="#011618" transform="translate(30,52)"/>
<path d="M0 0 C0.66 0 1.32 0 2 0 C2.33 0.99 2.66 1.98 3 3 C5.00016466 4.20882096 5.00016466 4.20882096 7 5 C6 6 6 6 3.4375 6.0625 C2.2309375 6.0315625 2.2309375 6.0315625 1 6 C0.4465236 3.92446352 0 2.15634036 0 0 Z " fill="#1C9C90" transform="translate(74,32)"/>
<path d="M0 0 C1.98 0.99 1.98 0.99 4 2 C3.6875 3.9375 3.6875 3.9375 3 6 C2.01 6.33 1.02 6.66 0 7 C0 4.69 0 2.38 0 0 Z " fill="#209C84" transform="translate(94,12)"/>
<path d="M0 0 C1.85776765 3.13498292 2.20140476 5.37471432 2 9 C1.34 9 0.68 9 0 9 C-1.125 2.25 -1.125 2.25 0 0 Z " fill="#327970" transform="translate(73,31)"/>
<path d="M0 0 C1.32 0 2.64 0 4 0 C4 0.66 4 1.32 4 2 C4.66 2 5.32 2 6 2 C5.67 2.99 5.34 3.98 5 5 C4.01 5 3.02 5 2 5 C1.34 3.35 0.68 1.7 0 0 Z " fill="#139A8C" transform="translate(129,28)"/>
<path d="M0 0 C1.67542976 0.28604898 3.34385343 0.61781233 5 1 C5 1.99 5 2.98 5 4 C4.01 3.67 3.02 3.34 2 3 C1.34 3.66 0.68 4.32 0 5 C-0.5625 3.0625 -0.5625 3.0625 -1 1 C-0.67 0.67 -0.34 0.34 0 0 Z " fill="#081F21" transform="translate(90,30)"/>
<path d="M0 0 C2.97 0.495 2.97 0.495 6 1 C6.33 1.99 6.66 2.98 7 4 C5.35 4.33 3.7 4.66 2 5 C2 3.68 2 2.36 2 1 C1.34 0.67 0.68 0.34 0 0 Z " fill="#0E282F" transform="translate(60,25)"/>
<path d="M0 0 C0.66 0.66 1.32 1.32 2 2 C1.625 4.625 1.625 4.625 1 7 C-1.475 6.01 -1.475 6.01 -4 5 C-3.34 4.01 -2.68 3.02 -2 2 C-1.34 2 -0.68 2 0 2 C0 1.34 0 0.68 0 0 Z " fill="#0B2B30" transform="translate(28,22)"/>
<path d="M0 0 C2 1 2 1 2 1 Z " fill="#000000" transform="translate(37,86)"/>
<path d="" fill="#000000" transform="translate(0,0)"/>
<path d="" fill="#000000" transform="translate(0,0)"/>
<path d="" fill="#000000" transform="translate(0,0)"/>
<path d="" fill="#001A1A" transform="translate(0,0)"/>
<path d="" fill="#000000" transform="translate(0,0)"/>
<path d="" fill="#000000" transform="translate(0,0)"/>
<path d="" fill="#000000" transform="translate(0,0)"/>
<path d="" fill="#000000" transform="translate(0,0)"/>
</svg>
